<svg xmlns="http://www.w3.org/2000/svg" viewBox="0 0 97.64 13.53">
  <title>frill</title>
  <g>
    <path d="M55.49,4.75a10.46,10.46,0,0,0-1.18-.65l-.09,0h0a24.41,24.41,0,0,0-8.44-2,22.43,22.43,0,0,0-3.43,0A30.56,30.56,0,0,0,38,2.69c-1.55.34-3.21.81-4.93,1.37s-3.52,1.21-5.36,1.86S24.1,7.2,22.37,7.71a40.17,40.17,0,0,1-4.94,1.17,23.05,23.05,0,0,1-4.31.31,20.28,20.28,0,0,1-3.38-.27,13.68,13.68,0,0,1-2.09-.55,7.47,7.47,0,0,1-1.89-1A3.79,3.79,0,0,1,4.47,5.71a2.28,2.28,0,0,1,.24-2h0a2.26,2.26,0,0,1,.16-.26,3.06,3.06,0,0,1,.66-.65,1.05,1.05,0,0,1,.34-.17,1,1,0,0,0-.37.13,2.36,2.36,0,0,0-.7.64,1.45,1.45,0,0,0-.17.26h0A2.56,2.56,0,0,0,4.25,5.2a2.92,2.92,0,0,0,.68,1.48,5.94,5.94,0,0,0,2.7,1.77,13.84,13.84,0,0,0,3,.76,23.47,23.47,0,0,0,4.72.24,30.52,30.52,0,0,0,6-1C23.4,8,25.62,7.21,27.9,6.39s4.46-1.62,6.53-2.28a43,43,0,0,1,5.78-1.49,25.29,25.29,0,0,1,4.67-.41,30.08,30.08,0,0,1,3,.2,22.39,22.39,0,0,1,6.21,1.71l.14.06Z" style="fill: #fff;fill-rule: evenodd"/>
    <g>
      <path d="M25.49,11.35a2.15,2.15,0,0,0,.44.1h0a8,8,0,0,0,1.47,0,14.24,14.24,0,0,0,1.44-.2,16.68,16.68,0,0,0,2.56-.55c1-.29,2.2-.71,3.43-1.16s2.39-.85,3.4-1.15a17,17,0,0,1,2.52-.58,8.54,8.54,0,0,1,1.43,0,3.24,3.24,0,0,1,1.35.42h0l.09.06a1.68,1.68,0,0,1,.32.29.69.69,0,0,0-.26-.37l-.09,0h0a3,3,0,0,0-1-.38,4.46,4.46,0,0,0-1.1-.1,11.3,11.3,0,0,0-2.61.2,26.44,26.44,0,0,0-4.19,1.2c-1.53.56-2.91,1.12-4.05,1.5a19.79,19.79,0,0,1-2.5.69,7.74,7.74,0,0,1-1.08.1A7.69,7.69,0,0,1,26,11.36h-.06A2.3,2.3,0,0,0,25.49,11.35Z" style="fill: #fff;fill-rule: evenodd"/>
      <path d="M44.45,4.17a.58.58,0,0,0-.25-.06h0a2.68,2.68,0,0,0-1.55.48,3.27,3.27,0,0,0-1.1,1,3.52,3.52,0,0,0-.64,2,2.43,2.43,0,0,0,.28,1.11,2.06,2.06,0,0,0,.73.76,1.9,1.9,0,0,0,1.49.21,1,1,0,0,0,.72-.42.57.57,0,0,0,0-.44,1,1,0,0,0-.25-.36h0l0,0a.5.5,0,0,0-.23-.12.94.94,0,0,0,.16.19l.05,0h0a.63.63,0,0,1,.24.5.57.57,0,0,1-.34.44,1.68,1.68,0,0,1-1.32-.12,1.88,1.88,0,0,1-.74-.67,2.07,2.07,0,0,1-.29-1.08,4,4,0,0,1,.66-2.13,3.24,3.24,0,0,1,1-1,2.7,2.7,0,0,1,1.15-.27h0A1.17,1.17,0,0,0,44.45,4.17Z" style="fill: #fff;fill-rule: evenodd"/>
    </g>
    <path d="M8.59,9a6.59,6.59,0,0,0,.95.53l.06,0h0a20,20,0,0,0,6.8,1.58,17.55,17.55,0,0,0,2.75,0,24.49,24.49,0,0,0,3.49-.49c1.25-.27,2.59-.65,4-1.09s2.83-1,4.31-1.5,2.92-1,4.31-1.44a33.67,33.67,0,0,1,4-1,19.7,19.7,0,0,1,3.46-.26,16.13,16.13,0,0,1,2.71.21A10.67,10.67,0,0,1,47,6.08a5.53,5.53,0,0,1,1.52.8,3.06,3.06,0,0,1,1,1.33,1.87,1.87,0,0,1-.19,1.62h0l-.13.2a2.55,2.55,0,0,1-.53.52.7.7,0,0,1-.27.13.69.69,0,0,0,.29-.09,1.73,1.73,0,0,0,.58-.5l.14-.22h0a2.09,2.09,0,0,0,.3-1.26,2.43,2.43,0,0,0-.54-1.2A4.85,4.85,0,0,0,47.06,6a11.36,11.36,0,0,0-2.38-.63,19.93,19.93,0,0,0-3.8-.2,24,24,0,0,0-4.8.76c-1.71.43-3.49,1-5.33,1.68s-3.58,1.31-5.24,1.85a36.25,36.25,0,0,1-4.64,1.2,20.16,20.16,0,0,1-3.75.35,23.58,23.58,0,0,1-2.44-.16,17.85,17.85,0,0,1-5-1.37l-.12-.05Z" style="fill: #fff;fill-rule: evenodd"/>
    <path d="M42.13,4.82l1.21-.57.1,0h0a24.24,24.24,0,0,1,8.39-1.95,23.54,23.54,0,0,1,3.39.08,33.41,33.41,0,0,1,4.26.73c1.55.38,3.18.88,4.89,1.46s3.48,1.23,5.33,1.89,3.65,1.27,5.4,1.76a38.36,38.36,0,0,0,5,1.09,23.27,23.27,0,0,0,4.38.21,22.41,22.41,0,0,0,3.4-.4A13.14,13.14,0,0,0,90,8.52a7.33,7.33,0,0,0,1.93-1,4,4,0,0,0,1.34-1.71,2.34,2.34,0,0,0,.12-1.11,2.76,2.76,0,0,0-.37-1h0a2.4,2.4,0,0,0-.18-.26,2.34,2.34,0,0,0-.72-.65,1,1,0,0,0-.39-.13,1,1,0,0,1,.37.17,2.92,2.92,0,0,1,.66.66,1.51,1.51,0,0,1,.18.26h0a2.53,2.53,0,0,1,.37,1.54,2.93,2.93,0,0,1-.67,1.45A5.91,5.91,0,0,1,90,8.43a14.83,14.83,0,0,1-3,.64,25.34,25.34,0,0,1-4.69.08,31.21,31.21,0,0,1-5.86-1.07C74.34,7.52,72.14,6.76,69.86,6S65.39,4.34,63.3,3.7a40.8,40.8,0,0,0-5.87-1.37,24.53,24.53,0,0,0-4.72-.27,28.83,28.83,0,0,0-3.05.33A22.55,22.55,0,0,0,43.44,4.1l-.14.06A9,9,0,0,0,42.13,4.82Z" style="fill: #fff;fill-rule: evenodd"/>
    <g>
      <path d="M72.1,11.33a2.3,2.3,0,0,0-.45,0h0a7,7,0,0,1-1.44.06,13.66,13.66,0,0,1-1.43-.2,24.35,24.35,0,0,1-2.47-.77c-1-.36-2.14-.81-3.37-1.27a30.08,30.08,0,0,0-3.48-1.05,13,13,0,0,0-2.6-.35,7.22,7.22,0,0,0-1.47,0,3.46,3.46,0,0,0-1.41.44h0l-.09.06a.75.75,0,0,0-.27.38,1.47,1.47,0,0,1,.33-.3L54,8.28h0a2.91,2.91,0,0,1,1-.37,4.34,4.34,0,0,1,1.08-.09,12.46,12.46,0,0,1,2.54.46c1.17.3,2.57.8,4.09,1.35s3,1,4.13,1.35a17.06,17.06,0,0,0,2.59.43,7.82,7.82,0,0,0,2.16,0h.06A2.39,2.39,0,0,0,72.1,11.33Z" style="fill: #fff;fill-rule: evenodd"/>
      <path d="M53.14,4.24a1.2,1.2,0,0,0,.26,0h0a2.64,2.64,0,0,1,1.48.46A3.91,3.91,0,0,1,56.2,7.6a2.09,2.09,0,0,1-.19.91,1.75,1.75,0,0,1-.53.64,1.79,1.79,0,0,1-1.25.4.87.87,0,0,1-.62-.36.36.36,0,0,1,0-.32,1,1,0,0,1,.21-.31h0l0,0A.94.94,0,0,0,54,8.34a.58.58,0,0,0-.22.12l0,0h0a.68.68,0,0,0-.27.54.63.63,0,0,0,.37.48,1.46,1.46,0,0,0,.55.21,2,2,0,0,0,.92-.07,2.19,2.19,0,0,0,1-.72,2.34,2.34,0,0,0,.42-1.33,3.57,3.57,0,0,0-.9-2.33,3,3,0,0,0-1.21-.83,2.47,2.47,0,0,0-1.16-.27h0A.68.68,0,0,0,53.14,4.24Z" style="fill: #fff;fill-rule: evenodd"/>
    </g>
    <path d="M89,9,88,9.4l-.07,0h0A19.56,19.56,0,0,1,81.19,11a18.58,18.58,0,0,1-2.72-.08,26,26,0,0,1-3.42-.6c-1.24-.31-2.55-.7-3.92-1.17s-2.8-1-4.29-1.53-2.94-1-4.34-1.41a30.67,30.67,0,0,0-4-.87,18,18,0,0,0-3.52-.15,16.18,16.18,0,0,0-2.73.33,11.21,11.21,0,0,0-1.7.45A5.76,5.76,0,0,0,49,6.79a3.25,3.25,0,0,0-1.09,1.39,2,2,0,0,0,.21,1.74h0c0,.07.09.14.14.21a1.7,1.7,0,0,0,.58.52.71.71,0,0,0,.31.1.72.72,0,0,1-.28-.14,2.4,2.4,0,0,1-.53-.53,1.28,1.28,0,0,1-.14-.21h0a2.07,2.07,0,0,1-.3-1.24,2.37,2.37,0,0,1,.53-1.16,4.77,4.77,0,0,1,2.16-1.41,11.78,11.78,0,0,1,2.39-.5A20.74,20.74,0,0,1,56.7,5.5a25.42,25.42,0,0,1,4.7.88c1.68.45,3.45,1.06,5.27,1.71s3.6,1.3,5.29,1.8A32.31,32.31,0,0,0,76.68,11a20.1,20.1,0,0,0,3.8.2c1.06-.07,1.89-.18,2.45-.27a18.58,18.58,0,0,0,5-1.38l.11,0A8,8,0,0,0,89,9Z" style="fill: #fff;fill-rule: evenodd"/>
  </g>
</svg>
