<svg xmlns="http://www.w3.org/2000/svg" viewBox="0 0 1800 1200"><defs><style>.a{fill:#fff;}</style></defs><title>Artboard 1</title><path class="a" d="M910.36,289l.17,0h-.33c-5.12-1.13-9-3.61-10.13-6.64h0v0h0v.07c-1.13,3-4.94,5.45-10,6.6h-.1l.05,0-.16,0h.32c5,1.15,8.86,3.59,10,6.6v.07h0l0,0h0c1.14-3,5-5.5,10.13-6.63h.11Z"/><path class="a" d="M890,289l-.13,0-9.53-3.41h-.7a10,10,0,0,0-2.33-.25c-5.45.08-10.89.25-16.32.37l-52,1.18-98.9,2.24c-2.19.05-4.43,0-6.61.15l-2.35,0,1,0L774,290.91l62.28,1.42c9.58.22,19.11.75,28.7.83,5.66,0,14.4,1.27,18.07-1.73h0l6.83-2.45Z"/><path class="a" d="M910.05,288.84l.13,0,9.53-3.41h.71a10.53,10.53,0,0,1,2.32-.24c5.45.08,10.89.24,16.33.37L991,286.7l98.9,2.24c2.19.06,4.43,0,6.61.16l2.35,0-1,0L1026,290.8l-62.28,1.42c-9.58.22-19.11.75-28.7.84-5.65.05-14.39,1.27-18.06-1.74h0l-6.84-2.45Z"/><path class="a" d="M910.36,911l.17,0h-.33c-5.12-1.13-9-3.61-10.13-6.64h0a0,0,0,0,1,0,0h0v.07c-1.13,3-4.94,5.45-10,6.6h-.1l.05,0-.16,0h.32c5,1.15,8.86,3.59,10,6.6v.07h0l0,0h0c1.14-3,5-5.5,10.13-6.63h.11Z"/><path class="a" d="M890,911l-.13,0-9.53-3.41h-.7a10,10,0,0,0-2.33-.25c-5.45.08-10.89.25-16.32.37l-52,1.18-98.9,2.24c-2.19.05-4.43,0-6.61.15l-2.35,0,1,0L774,912.91l62.28,1.42c9.58.22,19.11.75,28.7.83,5.66.05,14.4,1.27,18.07-1.73h0l6.83-2.45Z"/><path class="a" d="M910.05,910.84l.13,0,9.53-3.41h.71a10.53,10.53,0,0,1,2.32-.24c5.45.08,10.89.24,16.33.37L991,908.7l98.9,2.24c2.19.06,4.43,0,6.61.16l2.35,0-1,0L1026,912.8l-62.28,1.42c-9.58.22-19.11.75-28.7.84-5.65.05-14.39,1.27-18.06-1.74h0l-6.84-2.45Z"/><path class="a" d="M732.28,596.9v23.94q0,13.42.63,17.59a8.89,8.89,0,0,0,3.4,6.17q2.78,2,10.42,2h3.78v3.86H698.35v-3.86h3q7.3,0,10.12-1.85a8.46,8.46,0,0,0,3.57-5.75q.75-3.9.75-18.18V565q0-13.61-.75-17.56T711.71,542q-2.61-1.5-11.26-1.51h-2.1V536.6l14.28-.5q17.13-.6,26.71-.59,17.64,0,27.17,2.77a31.86,31.86,0,0,1,15.62,9.83q6.09,7,6.09,17.8a32.13,32.13,0,0,1-4.16,16.46,26.74,26.74,0,0,1-11.93,10.84q-7.77,3.69-27.33,3.69Zm0-4.2h8.15q9.83,0,15.87-2a19,19,0,0,0,10.08-8.27q4-6.3,4-15.54,0-14.11-6.93-20.7T741,539.62a86.12,86.12,0,0,0-8.74.34Z"/><path class="a" d="M891.94,617l-.84,33.51H794.35v-3.86h3.36q7.31,0,10.12-1.85a8.58,8.58,0,0,0,3.61-5.75q.79-3.9.8-18.18V565q0-13.61-.8-17.56T808.08,542q-2.57-1.5-11.21-1.51h-2.52V536.6H849v3.86h-5q-8.4,0-11,1.39T829.5,547q-.88,3.78-.89,18v59.63q0,12.35.68,15.45a7.15,7.15,0,0,0,3.65,4.83c2,1.15,6.26,1.72,12.81,1.72h8.65q10.49,0,15.58-1.85t9.65-8.06Q884.21,630.5,888,617Z"/><path class="a" d="M967.61,608.49H924.36l-2.94,7.22q-6.55,15.7-6.55,20.5,0,5.12,3.48,7.76a14.33,14.33,0,0,0,8.94,2.65v3.86H893.45v-3.86q7.56-1.17,11.25-5.33t8.91-17.51q.4-1.26,4-9.75l33.09-79H954l38,90.46,5.2,11.92a15.86,15.86,0,0,0,4.75,6.34q3,2.31,8.94,2.9v3.86H966.18v-3.86q8.24,0,11.13-1.22t2.9-4.83q0-1.85-3.87-11Zm-1.43-3.78L946,556.17,926,604.71Z"/><path class="a" d="M1055.54,600.68,1078,563q5.55-9.24,5.55-13.1a9,9,0,0,0-2.94-6.47q-2.94-2.94-10.5-2.94V536.6h37.2v3.86a21.52,21.52,0,0,0-12.47,5.76q-4.74,4.65-12.13,16.92l-25.54,42.58v15.12q0,14.52.89,18.51a8,8,0,0,0,3.78,5.63q2.9,1.63,11.38,1.64v3.86h-48.55v-3.86h1.85q7.3,0,10.12-1.85a8.4,8.4,0,0,0,3.57-5.75q.75-3.9.76-18.18v-14l-28.39-46.61q-8.65-14.12-11.51-16.84t-10.24-2.9V536.6H1037v3.86q-12.93,0-12.94,5.88,0,2.35,4.29,9.41Z"/></svg>